<?xml version="1.0" encoding="UTF-8"?>
<svg width="256" height="256" viewBox="0 0 256 256" fill="none" xmlns="http://www.w3.org/2000/svg">
  <defs>
    <linearGradient id="grad" x1="0%" y1="0%" x2="100%" y2="100%">
      <stop offset="0%" stop-color="#2563EB" />
      <stop offset="100%" stop-color="#3B82F6" />
    </linearGradient>
  </defs>
  <rect width="256" height="256" rx="56" fill="url(#grad)" />
  <g transform="translate(64, 64) scale(5.3333)">
    <g stroke="white" stroke-width="2" stroke-linecap="round" stroke-linejoin="round" fill="none">
      <path d="M16 4h2a2 2 0 0 1 2 2v14a2 2 0 0 1-2 2H6a2 2 0 0 1-2-2V6a2 2 0 0 1 2-2h2"></path><rect x="8" y="2" width="8" height="4" rx="1" ry="1"></rect><line x1="15" y1="11" x2="9" y2="17"></line><line x1="9" y1="11" x2="15" y2="17"></line>
    </g>
  </g>
</svg>