<svg width="200" height="200" viewBox="0 0 200 200" xmlns="http://www.w3.org/2000/svg"><defs><filter id="paperShadow" x="-50%" y="-50%" width="200%" height="200%"><feFlood flood-color="#000" flood-opacity="0.3"/><feComposite operator="in" in2="SourceGraphic"/><feOffset dx="1" dy="3"/><feGaussianBlur stdDeviation="1.5"/><feMerge><feMergeNode/><feMergeNode in="SourceGraphic"/></feMerge></filter></defs><g><g fill="#4a148c" filter="url(#paperShadow)"><circle cx="75" cy="85" r="24" /><circle cx="125" cy="85" r="24" /><circle cx="58" cy="115" r="24" /><circle cx="142" cy="115" r="24" /><circle cx="75" cy="145" r="24" /><circle cx="125" cy="145" r="24" /><circle cx="100" cy="160" r="24" /></g><g fill="#7b1fa2" filter="url(#paperShadow)"><circle cx="82" cy="108" r="23" /><circle cx="118" cy="108" r="23" /><circle cx="100" cy="138" r="23" /><circle cx="100" cy="90" r="23" /></g><g fill="#ab47bc" filter="url(#paperShadow)"><circle cx="100" cy="110" r="20" /></g><path d="M100 65 Q105 25 135 20 Q125 60 100 65 Z" fill="#66bb6a" filter="url(#paperShadow)" transform="rotate(-5 100 65)" /><path d="M105 55 L115 40" stroke="#388e3c" stroke-width="2" stroke-linecap="round" opacity="0.5" transform="rotate(-5 100 65)"/></g></svg>